# Apple ModelIO OBJ File: hextile7
mtllib hextile7.mtl
g Circle_Material.001
v -0.866025 1 0.5
v -0.866025 1 -0.5
v -0.866025 -1 -0.5
v -0.866025 -1 0.5
v 0 1 1
v 0 -1 1
v 0.866025 1 0.5
v 0.866025 -1 0.5
v 0.866025 1 -0.5
v 0.866025 -1 -0.5
v 0 1 -1
v 0 -1 -1
v 0 1.2 0
v 0 1.2 -1
v -0.866025 1.2 -0.5
v -0.866025 1.2 0.5
v 0 1.2 1
v 0.866025 1.2 0.5
v 0.866025 1.2 -0.5
v 0 -1 0
vn -1 -0 -0
vn -0.5 -0 0.866
vn 0.5 -0 0.866
vn 1 -0 -0
vn -0.5 -0 -0.866
vn 0.5 -0 -0.866
vn -0 1 -0
vn -0 -1 -0
vt 0.671421 0.011098
vt 0.849224 0.011098
vt 0.849224 0.366705
vt 0.671421 0.366705
vt 0.011098 0.424462
vt 0.188902 0.424462
vt 0.188902 0.780069
vt 0.011098 0.780069
vt 0.211098 0.424462
vt 0.388902 0.424462
vt 0.388902 0.780069
vt 0.211098 0.780069
vt 0.411098 0.424462
vt 0.588902 0.424462
vt 0.588902 0.780069
vt 0.411098 0.780069
vt 0.811098 0.388902
vt 0.988902 0.388902
vt 0.988902 0.744508
vt 0.811098 0.744508
vt 0.611098 0.424462
vt 0.788902 0.424462
vt 0.788902 0.780069
vt 0.611098 0.780069
vt 0.165081 0.188902
vt 0.011098 0.277803
vt 0.011098 0.1
vt 0.165081 0.011098
vt 0.319063 0.1
vt 0.319063 0.277803
vt 0.165081 0.366705
vt 0.682273 0.791474
vt 0.682273 0.98242
vt 0.63822 0.98242
vt 0.63822 0.791474
vt 0.697245 0.98242
vt 0.697245 0.791474
vt 0.741298 0.791474
vt 0.741298 0.98242
vt 0.908273 0.789353
vt 0.908273 0.973154
vt 0.875796 0.973154
vt 0.875796 0.789353
vt 0.800323 0.791474
vt 0.800323 0.98242
vt 0.75627 0.98242
vt 0.75627 0.791474
vt 0.849685 0.796573
vt 0.849685 0.980374
vt 0.817207 0.980374
vt 0.817207 0.796573
vt 0.623247 0.791474
vt 0.623247 0.98242
vt 0.579195 0.98242
vt 0.579195 0.791474
vt 0.495242 0.188902
vt 0.495242 0.366705
vt 0.341259 0.277803
vt 0.649224 0.277803
vt 0.649224 0.1
vt 0.495242 0.011098
vt 0.341259 0.1
usemtl Material.001
f 1/1/1 2/2/1 3/3/1
f 1/1/1 3/3/1 4/4/1
f 5/5/2 1/6/2 4/7/2
f 5/5/2 4/7/2 6/8/2
f 7/9/3 5/10/3 6/11/3
f 7/9/3 6/11/3 8/12/3
f 9/13/4 7/14/4 8/15/4
f 9/13/4 8/15/4 10/16/4
f 2/17/5 11/18/5 12/19/5
f 2/17/5 12/19/5 3/20/5
f 11/21/6 9/22/6 10/23/6
f 11/21/6 10/23/6 12/24/6
f 13/25/7 14/26/7 15/27/7
f 13/25/7 15/27/7 16/28/7
f 13/25/7 16/28/7 17/29/7
f 13/25/7 17/29/7 18/30/7
f 13/25/7 18/30/7 19/31/7
f 13/25/7 19/31/7 14/26/7
f 5/32/3 7/33/3 18/34/3
f 5/32/3 18/34/3 17/35/3
f 1/36/2 5/37/2 17/38/2
f 1/36/2 17/38/2 16/39/2
f 2/40/1 1/41/1 16/42/1
f 2/40/1 16/42/1 15/43/1
f 9/44/6 11/45/6 14/46/6
f 9/44/6 14/46/6 19/47/6
f 11/48/5 2/49/5 15/50/5
f 11/48/5 15/50/5 14/51/5
f 7/52/4 9/53/4 19/54/4
f 7/52/4 19/54/4 18/55/4
f 20/56/8 3/57/8 12/58/8
f 20/56/8 4/59/8 3/57/8
f 20/56/8 6/60/8 4/59/8
f 20/56/8 8/61/8 6/60/8
f 20/56/8 10/62/8 8/61/8
f 20/56/8 12/58/8 10/62/8
s off
