# Blender 4.4.1
# www.blender.org
mtllib HexCap.mtl
o Cylinder
v 0.000000 -0.125000 -1.000000
v 0.000000 0.125000 -1.000000
v 0.866025 -0.125000 -0.500000
v 0.866025 0.125000 -0.500000
v 0.866025 -0.125000 0.500000
v 0.866025 0.125000 0.500000
v 0.000000 -0.125000 1.000000
v 0.000000 0.125000 1.000000
v -0.866025 -0.125000 0.500000
v -0.866025 0.125000 0.500000
v -0.866025 -0.125000 -0.500000
v -0.866025 0.125000 -0.500000
vn 0.5000 -0.0000 -0.8660
vn 1.0000 -0.0000 -0.0000
vn 0.5000 -0.0000 0.8660
vn -0.5000 -0.0000 0.8660
vn -0.0000 1.0000 -0.0000
vn -1.0000 -0.0000 -0.0000
vn -0.5000 -0.0000 -0.8660
vn -0.0000 -1.0000 -0.0000
vt 0.084978 0.857668
vt 0.018008 0.857668
vt 0.018008 0.589787
vt 0.084979 0.589787
vt 0.187965 0.857668
vt 0.120995 0.857668
vt 0.120995 0.589787
vt 0.187965 0.589787
vt 0.290952 0.857668
vt 0.223981 0.857668
vt 0.223981 0.589787
vt 0.290952 0.589787
vt 0.393938 0.857668
vt 0.326968 0.857668
vt 0.326968 0.589787
vt 0.393938 0.589787
vt 0.250000 0.553770
vt 0.018008 0.419830
vt 0.018008 0.151949
vt 0.250000 0.018008
vt 0.481992 0.151949
vt 0.481992 0.419830
vt 0.496925 0.857668
vt 0.429955 0.857668
vt 0.429955 0.589787
vt 0.496925 0.589787
vt 0.599912 0.857668
vt 0.532941 0.857668
vt 0.532941 0.589787
vt 0.599912 0.589787
vt 0.518008 0.419830
vt 0.518008 0.151949
vt 0.750000 0.018008
vt 0.981992 0.151949
vt 0.981992 0.419830
vt 0.750000 0.553770
s 0
f 1/1/1 2/2/1 4/3/1 3/4/1
f 3/5/2 4/6/2 6/7/2 5/8/2
f 5/9/3 6/10/3 8/11/3 7/12/3
f 7/13/4 8/14/4 10/15/4 9/16/4
f 4/17/5 2/18/5 12/19/5 10/20/5 8/21/5 6/22/5
f 9/23/6 10/24/6 12/25/6 11/26/6
f 11/27/7 12/28/7 2/29/7 1/30/7
f 1/31/8 3/32/8 5/33/8 7/34/8 9/35/8 11/36/8
